<svg width="177" height="48" viewBox="0 0 177 48" fill="none" xmlns="http://www.w3.org/2000/svg">
<path d="M67.487 37.7815C68.2909 37.7815 69.0826 37.7208 69.8621 37.5995V33.485C69.3993 33.5579 68.973 33.5943 68.5832 33.5943C67.414 33.5943 66.5614 33.3273 66.0254 32.7932C65.4895 32.2592 65.2215 31.4946 65.2215 30.4993V22.0156H69.7891V17.7555H65.2215V13.2406H60.4348V14.7698C60.4348 15.7408 60.1668 16.4811 59.6309 16.9909C59.095 17.5007 58.3398 17.7555 57.3654 17.7555H57V22.0156H60.4348V30.7542C60.4348 32.9632 61.0438 34.6866 62.2618 35.9246C63.5042 37.1625 65.2459 37.7815 67.487 37.7815Z" fill="white"/>
<path d="M79.4414 38C82.0236 38 84.0942 37.1504 85.6532 35.4512V37.5631H90.1842V24.3823C90.1842 22.9987 89.831 21.7729 89.1245 20.7048C88.4181 19.6368 87.4437 18.8114 86.2013 18.2289C84.9833 17.622 83.5583 17.3186 81.9261 17.3186C79.9286 17.3186 78.1503 17.7919 76.5913 18.7386C75.0322 19.6853 73.9604 20.9354 73.3757 22.4889L77.2855 24.3823C77.6509 23.4842 78.2234 22.7681 79.0029 22.2341C79.7824 21.6758 80.6959 21.3966 81.7434 21.3966C82.8396 21.3966 83.7166 21.6879 84.3743 22.2705C85.0564 22.8288 85.3974 23.5327 85.3974 24.3823V25.0377L79.4779 25.9844C77.1394 26.3728 75.4098 27.1131 74.2892 28.2055C73.1687 29.2978 72.6084 30.6693 72.6084 32.3199C72.6084 34.0676 73.2296 35.4512 74.4719 36.4707C75.7143 37.4902 77.3708 38 79.4414 38ZM77.5778 32.1378C77.5778 30.7542 78.5157 29.8804 80.3914 29.5163L85.3974 28.6788V29.4798C85.3974 30.8392 84.9224 31.9922 83.9724 32.9389C83.0467 33.8856 81.8287 34.3589 80.3184 34.3589C79.5145 34.3589 78.8567 34.1647 78.3452 33.7763C77.8336 33.3637 77.5778 32.8175 77.5778 32.1378Z" fill="white"/>
<path d="M94.6084 15.5345H99.3952V10.4369H94.6084V15.5345ZM94.6084 37.5631H99.3952V17.7555H94.6084V37.5631Z" fill="white"/>
<path d="M103.815 37.5631H108.602V10H103.815V37.5631Z" fill="white"/>
<path d="M123.874 38C125.798 38 127.516 37.5509 129.026 36.6528C130.536 35.7304 131.73 34.4924 132.607 32.9389C133.484 31.3611 133.922 29.6012 133.922 27.6593C133.922 25.7174 133.484 23.9697 132.607 22.4161C131.73 20.8383 130.536 19.6003 129.026 18.7022C127.516 17.7798 125.81 17.3186 123.91 17.3186C121.328 17.3186 119.294 18.1318 117.808 19.7581V10H113.021V37.5631H117.516V35.342C118.247 36.1916 119.16 36.847 120.256 37.3082C121.377 37.7694 122.583 38 123.874 38ZM123.326 33.6307C122.278 33.6307 121.328 33.3758 120.475 32.8661C119.647 32.3563 118.989 31.6524 118.502 30.7542C118.039 29.8561 117.808 28.8244 117.808 27.6593C117.808 26.4941 118.039 25.4625 118.502 24.5644C118.989 23.6662 119.647 22.9623 120.475 22.4525C121.328 21.9428 122.278 21.6879 123.326 21.6879C124.422 21.6879 125.384 21.9549 126.212 22.4889C127.065 22.9987 127.735 23.7026 128.222 24.6008C128.709 25.4989 128.953 26.5184 128.953 27.6593C128.953 28.8002 128.709 29.8318 128.222 30.7542C127.735 31.6524 127.065 32.3563 126.212 32.8661C125.384 33.3758 124.422 33.6307 123.326 33.6307Z" fill="white"/>
<path d="M137.572 15.5345H142.358V10.4369H137.572V15.5345ZM137.572 37.5631H142.358V17.7555H137.572V37.5631Z" fill="white"/>
<path d="M155.84 37.7815C156.644 37.7815 157.436 37.7208 158.215 37.5995V33.485C157.752 33.5579 157.326 33.5943 156.936 33.5943C155.767 33.5943 154.914 33.3273 154.378 32.7932C153.843 32.2592 153.575 31.4946 153.575 30.4993V22.0156H158.142V17.7555H153.575V13.2406H148.788V14.7698C148.788 15.7408 148.52 16.4811 147.984 16.9909C147.448 17.5007 146.693 17.7555 145.718 17.7555H145.353V22.0156H148.788V30.7542C148.788 32.9632 149.397 34.6866 150.615 35.9246C151.857 37.1625 153.599 37.7815 155.84 37.7815Z" fill="white"/>
<path d="M169.436 38C170.947 38 172.262 37.7451 173.383 37.2354C174.503 36.7256 175.38 36.0217 176.013 35.1235C176.647 34.2011 176.963 33.1452 176.963 31.9558C176.963 30.5722 176.525 29.3827 175.648 28.3875C174.771 27.3923 173.504 26.6641 171.848 26.2029L168.669 25.2562C167.987 25.062 167.426 24.8071 166.988 24.4915C166.55 24.176 166.33 23.7391 166.33 23.1808C166.33 22.5982 166.562 22.1248 167.025 21.7607C167.487 21.3966 168.121 21.2146 168.925 21.2146C169.923 21.2146 170.825 21.4816 171.629 22.0156C172.457 22.5496 173.029 23.2657 173.346 24.1638L177 22.4525C176.391 20.8505 175.368 19.6003 173.931 18.7022C172.493 17.7798 170.837 17.3186 168.961 17.3186C167.524 17.3186 166.245 17.5735 165.124 18.0832C164.028 18.593 163.163 19.3091 162.53 20.2315C161.921 21.1296 161.617 22.1855 161.617 23.3992C161.617 24.7586 162.043 25.9358 162.895 26.9311C163.772 27.9263 165.051 28.6667 166.732 29.1521L169.984 30.0624C170.618 30.2323 171.154 30.4872 171.592 30.827C172.055 31.1426 172.286 31.5795 172.286 32.1378C172.286 32.7932 172.018 33.3151 171.482 33.7035C170.971 34.0676 170.289 34.2497 169.436 34.2497C168.316 34.2497 167.305 33.9341 166.403 33.303C165.502 32.6719 164.783 31.798 164.247 30.6814L160.667 32.3927C161.251 34.0919 162.323 35.4512 163.882 36.4707C165.465 37.4902 167.317 38 169.436 38Z" fill="white"/>
<path d="M0 33.957V14.043C0 12.7624 0.972669 11.0774 2.08169 10.4371L19.328 0.480136C20.4034 -0.141019 22.3494 -0.178793 23.4913 0.480136L28.6522 3.45996C28.1752 3.57727 27.6786 3.76819 27.2814 3.9975L10.0355 13.9545C7.90275 15.1854 7.02292 17.7925 7.02292 19.1724V29.1294C7.02292 30.9108 8.23132 33.004 9.77397 33.8945C9.777 33.8963 9.78038 33.8977 9.78345 33.8995C9.78822 33.9023 9.79283 33.9057 9.7976 33.9085C11.3269 34.7906 13.7225 34.7915 15.2524 33.9082L23.8992 28.9157C25.5885 27.9406 26.9118 25.6487 26.9118 23.6979V16.6198L28.4742 15.7177C29.4415 15.159 31.1367 15.1582 32.1076 15.7146C33.0584 16.2751 33.9068 17.719 33.9104 18.8185V28.8306C33.9144 30.1099 32.9611 31.7935 31.853 32.4334L14.607 42.3901C13.4978 43.0308 11.5461 43.0266 10.4437 42.3906L2.08169 37.5628C0.972669 36.9225 0 35.2375 0 33.957ZM42.8193 33.957C42.8193 35.2375 41.8466 36.9225 40.7376 37.5628L23.4913 47.5198C22.3823 48.1604 20.437 48.1598 19.328 47.5198L14.1671 44.54C14.9544 44.3462 15.4751 44.0387 15.5379 44.0024L32.7838 34.0454C34.9165 32.8146 35.7964 30.2074 35.7964 28.8276V18.8706C35.7964 17.0892 34.5882 14.9959 33.0453 14.1054C33.0414 14.1031 33.0371 14.101 33.0331 14.0987C33.0293 14.0965 33.0256 14.0937 33.0217 14.0915C31.4924 13.2091 29.0968 13.2088 27.5669 14.0918L18.9201 19.0842C17.2308 20.0593 15.9075 22.3513 15.9075 24.3021V31.3801L14.3451 32.2822C13.3775 32.8409 11.6823 32.8417 10.7117 32.2854C9.76087 31.7248 8.9125 30.2809 8.90888 29.1815V19.1693C8.90494 17.89 9.8582 16.2065 10.9663 15.5665L28.2123 5.60985C29.3239 4.96796 31.2754 4.97449 32.3757 5.60936L40.7376 10.4371C41.8466 11.0774 42.8193 12.7624 42.8193 14.043V33.957V33.957Z" fill="url(#paint0_linear_813_46127)"/>
<defs>
<linearGradient id="paint0_linear_813_46127" x1="12.4229" y1="-2.5495e-07" x2="30.9251" y2="39.3832" gradientUnits="userSpaceOnUse">
<stop stop-color="#62BAF3"/>
<stop offset="1" stop-color="#1A92E0"/>
</linearGradient>
</defs>
</svg>
